# xmcd CD database file
#
# Track frame offsets:
#	150
#	15222
#	33757
#	51050
#	80370
#	96102
#	124250
#	145485
#	164570
#	180192
#	197435
#	221780
#	239390
#	249852
#	260965
#
# Disc length: 3695 seconds
#
# Revision: 1
# Processed by: cddbd v1.5.1PL0 Copyright (c) Steve Scherf et al.
# Submitted via: CDex 1.51
#
DISCID=c50e6d0f
DTITLE=Hal McKusick - Now's the Time
DYEAR=1957
DGENRE=Jazz
TTITLE0=Whisper Not
TTITLE1=You're My Thrill
TTITLE2=It Never Entered My Mind
TTITLE3=Stratusphunk
TTITLE4=The Last Day of Fall
TTITLE5=Now's the Time
TTITLE6=The End of a Love Affair
TTITLE7=LaRue
TTITLE8=Down and Dirty
TTITLE9=Alone Together
TTITLE10=Gone with the Wind
TTITLE11=Ponsu
TTITLE12=Isn't It Romantic
TTITLE13=For Art's Sake
TTITLE14=Old Devil Moon
EXTD=YEAR: 1957
EXTT0=
EXTT1=
EXTT2=
EXTT3=
EXTT4=
EXTT5=
EXTT6=
EXTT7=
EXTT8=
EXTT9=
EXTT10=
EXTT11=
EXTT12=
EXTT13=
EXTT14=
PLAYORDER=
